<svg xmlns="http://www.w3.org/2000/svg" viewBox="0 0 855 420" aria-labelledby="title desc"><title id="title">CadeLoop</title><desc id="desc">A seven-segment CadeLoop wordmark beside a stopwatch build-status display on a dark technical grid.</desc><defs><path id="seg-a" d="M10 0h47l9 8-9 8H10L2 8Z"/><path id="seg-g" d="M10 57h47l9 8-9 8H10l-8-8Z"/><path id="seg-d" d="M10 114h47l9 8-9 8H10l-8-8Z"/><path id="seg-f" d="m0 10 8-8 8 8v43l-8 8-8-8Z"/><path id="seg-b" d="m57 10 8-8 8 8v43l-8 8-8-8Z"/><path id="seg-e" d="m0 77 8-8 8 8v34l-8 8-8-8Z"/><path id="seg-c" d="m57 77 8-8 8 8v34l-8 8-8-8Z"/><g id="letter-c"><use href="#seg-a"/><use href="#seg-f"/><use href="#seg-e"/><use href="#seg-d"/></g><g id="letter-a"><use href="#seg-a"/><use href="#seg-b"/><use href="#seg-c" transform="matrix(1 0 0 1.3 0 -20)"/><use href="#seg-e" transform="matrix(1 0 0 1.3 0 -20)"/><use href="#seg-f"/><use href="#seg-g"/></g><g id="letter-d"><use href="#seg-a"/><use href="#seg-b" transform="rotate(-15 63.5 42.394)scale(1 1.15)"/><use href="#seg-c" transform="rotate(15 52.106 89.106)"/><use href="#seg-d"/><use href="#seg-e"/><use href="#seg-f"/></g><g id="letter-e" transform="translate(6)"><use href="#seg-a"/><use href="#seg-d"/><use href="#seg-e"/><use href="#seg-f"/><use href="#seg-g"/></g><g id="letter-l" transform="translate(8)"><use href="#seg-d"/><use href="#seg-e"/><use href="#seg-f"/></g><g id="letter-o"><use href="#seg-a"/><use href="#seg-b"/><use href="#seg-c"/><use href="#seg-d"/><use href="#seg-e"/><use href="#seg-f"/></g><g id="letter-p" transform="translate(8)"><use href="#seg-a"/><use href="#seg-b"/><use href="#seg-e"/><use href="#seg-f"/><use href="#seg-g"/></g><radialGradient id="vignette" cx="45%" cy="42%" r="72%"><stop offset="0" stop-color="#171a1f" stop-opacity="0"/><stop offset=".72" stop-color="#0b0d11" stop-opacity=".25"/><stop offset="1" stop-color="#050609" stop-opacity=".9"/></radialGradient><linearGradient id="panel-sheen" x1="0" y1="0" x2="1" y2="1"><stop offset="0" stop-color="#171a1f"/><stop offset="1" stop-color="#0b0d11"/></linearGradient><pattern id="grid" width="20" height="20" patternUnits="userSpaceOnUse"><path d="M20 0H0v20" fill="none" stroke="#22272f" stroke-width=".65"/></pattern><filter id="segment-glow" x="-20%" y="-20%" width="140%" height="140%"><feGaussianBlur in="SourceGraphic" stdDeviation="2.4" result="blur"/><feFlood flood-color="#a7f9f1" flood-opacity=".18" result="color"/><feComposite in="color" in2="blur" operator="in" result="glow"/><feMerge><feMergeNode in="glow"/><feMergeNode in="SourceGraphic"/></feMerge></filter></defs><style>.mono{font-family:ui-monospace,SFMono-Regular,Menlo,Monaco,Consolas,&quot;Liberation Mono&quot;,monospace}.micro{fill:#87919d;font-size:10px;font-weight:600;letter-spacing:1.8px}.accent{fill:#00f0d1}</style><rect width="1200" height="400" rx="20" fill="#0b0d11"/><rect x="1" y="1" width="1198" height="418" rx="19" fill="none" stroke="#242a32" stroke-width="2"/><rect x="20" y="20" width="1160" height="380" rx="10" fill="url(#grid)" opacity=".72"/><g opacity=".7"><path class="accent" d="M80 34h5v5h-5z"/><path class="accent" opacity=".3" d="M300 34h5v5h-5z"/><path class="accent" d="M420 74h5v5h-5z"/><path class="accent" opacity=".4" d="M560 34h5v5h-5z"/><path class="accent" opacity=".75" d="M680 74h5v5h-5z"/><path class="accent" opacity=".28" d="M780 34h5v5h-5z"/><path class="accent" opacity=".35" d="M140 354h5v5h-5z"/><path class="accent" opacity=".65" d="M260 374h5v5h-5z"/><path class="accent" opacity=".3" d="M440 354h5v5h-5z"/><path class="accent" opacity=".8" d="M620 374h5v5h-5z"/></g><text class="mono" x="56" y="72" style="fill:#a7f9f1;font-size:14px;font-weight:700;letter-spacing:3.2px">RUST POWERED ASYNCIO</text><path fill="#323943" d="M56 82h742v1H56z"/><path fill="#00f0d1" d="M56 82h118v2H56z"/><g transform="translate(54 118)" style="fill:#f8ffff;filter:url(#segment-glow)"><use href="#letter-c"/><use href="#letter-a" x="85"/><use href="#letter-d" x="170"/><use href="#letter-e" x="255"/><use href="#letter-l" x="340"/><use href="#letter-o" x="425"/><use href="#letter-o" x="510"/><use href="#letter-p" x="595"/></g><text class="mono" x="56" y="301" style="fill:#fff;font-size:20px;font-weight:700;letter-spacing:3.8px">EVENT LOOP ⇆ NATIVE HTTP/1.1 SERVER</text><text class="mono micro" x="56" y="322">DROP-IN PERFORMANCE BOOST // PY 3.11 // WINDOWS + LINUX</text><path fill="#252b33" d="M56 352h742v2H56z"/><path fill="#00f0d1" d="M56 352h514v2H56z"/><path fill="#a7f9f1" d="M570 349h8v8h-8z"/><text class="mono micro" x="56" y="368">00</text><text class="mono micro" x="740" y="368">CADELOOP</text></svg>
