<svg xmlns="http://www.w3.org/2000/svg" viewBox="0 0 826 364" width="826" height="364" font-family="system-ui, -apple-system, 'Segoe UI', sans-serif">
<rect width="826" height="364" fill="#fcfcfb" rx="8"/>
<text x="20" y="30" font-size="15" font-weight="600" fill="#0b0b0b">HTTP/1.1 plaintext — throughput (higher is better)</text>
<line x1="232.0" y1="44" x2="232.0" y2="300" stroke="#e1e0d9" stroke-width="1"/>
<text x="232.0" y="316" font-size="11" fill="#898781" text-anchor="middle">0</text>
<line x1="336.0" y1="44" x2="336.0" y2="300" stroke="#e1e0d9" stroke-width="1"/>
<text x="336.0" y="316" font-size="11" fill="#898781" text-anchor="middle">25</text>
<line x1="440.0" y1="44" x2="440.0" y2="300" stroke="#e1e0d9" stroke-width="1"/>
<text x="440.0" y="316" font-size="11" fill="#898781" text-anchor="middle">50</text>
<line x1="544.0" y1="44" x2="544.0" y2="300" stroke="#e1e0d9" stroke-width="1"/>
<text x="544.0" y="316" font-size="11" fill="#898781" text-anchor="middle">75</text>
<line x1="648.0" y1="44" x2="648.0" y2="300" stroke="#e1e0d9" stroke-width="1"/>
<text x="648.0" y="316" font-size="11" fill="#898781" text-anchor="middle">100</text>
<line x1="752.0" y1="44" x2="752.0" y2="300" stroke="#e1e0d9" stroke-width="1"/>
<text x="752.0" y="316" font-size="11" fill="#898781" text-anchor="middle">125</text>
<text x="220" y="65" font-size="12" font-weight="600" fill="#0b0b0b" text-anchor="end">cadeloop serve()</text>
<path d="M232.0,52.0 h419.9 q4.0,0 4.0,4.0 v8.0 q0,4.0 -4.0,4.0 h-419.9 z" fill="#5a9996"/><rect x="232.0" y="51.0" width="0" height="0" fill="#fcfcfb"/>
<text x="663.9" y="65" font-size="12" font-weight="600" fill="#0b0b0b">102</text>
<text x="220" y="93" font-size="12" font-weight="400" fill="#52514e" text-anchor="end">granian</text>
<path d="M232.0,80.0 h258.6 q4.0,0 4.0,4.0 v8.0 q0,4.0 -4.0,4.0 h-258.6 z" fill="#b4531f"/><rect x="232.0" y="79.0" width="0" height="0" fill="#fcfcfb"/>
<text x="502.6" y="93" font-size="12" font-weight="400" fill="#52514e">63.1</text>
<text x="220" y="121" font-size="12" font-weight="400" fill="#52514e" text-anchor="end">uvicorn httptools / uvloop</text>
<path d="M232.0,108.0 h172.1 q4.0,0 4.0,4.0 v8.0 q0,4.0 -4.0,4.0 h-172.1 z" fill="#1baf7a"/><rect x="232.0" y="107.0" width="0" height="0" fill="#fcfcfb"/>
<text x="416.1" y="121" font-size="12" font-weight="400" fill="#52514e">42.3</text>
<text x="220" y="149" font-size="12" font-weight="400" fill="#52514e" text-anchor="end">uvicorn httptools / asyncio</text>
<path d="M232.0,136.0 h102.7 q4.0,0 4.0,4.0 v8.0 q0,4.0 -4.0,4.0 h-102.7 z" fill="#eb6834"/><rect x="232.0" y="135.0" width="0" height="0" fill="#fcfcfb"/>
<text x="346.7" y="149" font-size="12" font-weight="400" fill="#52514e">25.7</text>
<text x="220" y="177" font-size="12" font-weight="400" fill="#52514e" text-anchor="end">uvicorn h11 / cadeloop</text>
<path d="M232.0,164.0 h37.1 q4.0,0 4.0,4.0 v8.0 q0,4.0 -4.0,4.0 h-37.1 z" fill="#5a9996"/><rect x="232.0" y="163.0" width="0" height="0" fill="#fcfcfb"/>
<text x="281.1" y="177" font-size="12" font-weight="400" fill="#52514e">9.87</text>
<text x="220" y="205" font-size="12" font-weight="400" fill="#52514e" text-anchor="end">uvicorn h11 / uvloop</text>
<path d="M232.0,192.0 h36.5 q4.0,0 4.0,4.0 v8.0 q0,4.0 -4.0,4.0 h-36.5 z" fill="#1baf7a"/><rect x="232.0" y="191.0" width="0" height="0" fill="#fcfcfb"/>
<text x="280.5" y="205" font-size="12" font-weight="400" fill="#52514e">9.74</text>
<text x="220" y="233" font-size="12" font-weight="400" fill="#52514e" text-anchor="end">uvicorn h11 / asyncio</text>
<path d="M232.0,220.0 h23.7 q4.0,0 4.0,4.0 v8.0 q0,4.0 -4.0,4.0 h-23.7 z" fill="#eb6834"/><rect x="232.0" y="219.0" width="0" height="0" fill="#fcfcfb"/>
<text x="267.7" y="233" font-size="12" font-weight="400" fill="#52514e">6.66</text>
<text x="220" y="261" font-size="12" font-weight="400" fill="#52514e" text-anchor="end">uvicorn h11 / rsloop</text>
<path d="M232.0,248.0 h22.6 q4.0,0 4.0,4.0 v8.0 q0,4.0 -4.0,4.0 h-22.6 z" fill="#e87ba4"/><rect x="232.0" y="247.0" width="0" height="0" fill="#fcfcfb"/>
<text x="266.6" y="261" font-size="12" font-weight="400" fill="#52514e">6.40</text>
<text x="220" y="289" font-size="12" font-weight="400" fill="#52514e" text-anchor="end">hypercorn</text>
<path d="M232.0,276.0 h12.5 q4.0,0 4.0,4.0 v8.0 q0,4.0 -4.0,4.0 h-12.5 z" fill="#4a3aa7"/><rect x="232.0" y="275.0" width="0" height="0" fill="#fcfcfb"/>
<text x="256.5" y="289" font-size="12" font-weight="400" fill="#52514e">3.96</text>
<text x="20" y="330" font-size="11" fill="#898781">thousand requests/second — wrk -t2 -c64, loopback, single worker</text>
</svg>